<?xml version="1.0" encoding="UTF-8" standalone="no"?>
<!DOCTYPE svg PUBLIC "-//W3C//DTD SVG 20010904//EN"
"http://www.w3.org/TR/2001/REC-SVG-20010904/DTD/svg10.dtd">
<!-- Created with Sodipodi ("http://www.sodipodi.com/") -->
<svg
   xmlns="http://www.w3.org/2000/svg"
   xmlns:xlink="http://www.w3.org/1999/xlink"
   xml:space="preserve"
   version="1.0"
   x="0"
   y="0"
   width="1080"
   height="360"
   id="svg826"
   xmlns:sodipodi="http://sodipodi.sourceforge.net/DTD/sodipodi-0.dtd"
   sodipodi:version="0.34"
   sodipodi:docname="C:\Documents and Settings\All Users\Documents\WORK\modwest\site\ndz\docroot\ndz2.svg"><sodipodi:namedview
   id="base" /><defs
   id="defs828"><linearGradient
   id="linearGradient1140"><stop
   style="stop-color:#e7b200;stop-opacity:1;"
   offset="0"
   id="stop1141" /><stop
   style="stop-color:#ff6547;stop-opacity:1;"
   offset="1"
   id="stop1142" /></linearGradient><radialGradient
   cx="0.52713162"
   cy="0.53125"
   r="0.53097111"
   fx="0.52713162"
   fy="0.53125"
   id="radialGradient1143"
   xlink:href="#linearGradient1140" /></defs><rect
   width="297.5"
   height="297.5"
   rx="46.484375"
   ry="53.4570427"
   x="32.5"
   y="32.4998512"
   style="font-size:12;fill:url(#radialGradient1143);fill-rule:evenodd;stroke:#000000;stroke-width:17.70833;"
   id="rect1138" /><path
   d="M 104.0531 282.169 L 104.0531 76.1729 L 141.7724 76.1729 L 227.3721 216.8905 L 227.3721 76.1729 L 261.7513 76.1729 L 261.7513 282.169 L 223.4748 282.169 L 138.4322 141.4515 L 138.4322 282.169 L 104.0531 282.169 z "
   style="font-size:72;font-weight:bold;font-family:Luxi Sans;"
   id="path1176" /><path
   d="M 77.41574 44.99987 C 60.84242 44.99987 47.5 58.34229 47.5 74.9156 L 48.75 93.83409 C 48.75 110.4075 85.84243 107.4999 108.6657 107.4999 C 152.8886 102.4999 196.8488 101.088 237.5842 114.9999 C 269.9721 125.6341 317.5 161.6575 317.5 145.0841 L 316.25 74.9156 C 316.25 58.34229 302.9076 44.99987 286.3342 44.99987 L 77.41574 44.99987 z "
   style="font-size:12;fill:#ffffff;fill-opacity:0.269;fill-rule:evenodd;"
   id="path1147" /><rect
   width="297.5"
   height="297.5"
   rx="46.484375"
   ry="53.4570427"
   x="32.5"
   y="32.4998512"
   transform="translate(359.0357,3.814697e-6)"
   style="font-size:12;fill:url(#radialGradient1143);fill-rule:evenodd;stroke:#000000;stroke-width:17.70833;"
   id="rect1152" /><path
   d="M 502.8784 252.9398 L 518.0496 252.9398 C 562.7751 252.9398 585.1375 227.9326 585.1375 177.9183 C 585.1375 154.8132 579.5703 136.8118 568.4353 123.9139 C 557.3004 110.9231 541.9435 104.4278 522.3647 104.4278 L 502.8784 104.4278 L 502.8784 252.9398 z M 460.009 282.169 L 460.009 76.17292 L 531.6898 76.17292 C 563.6101 76.17292 588.0605 84.6633 605.0414 101.644 C 622.115 118.532 630.6516 143.0289 630.6516 175.1346 C 630.6516 208.9105 621.651 235.2167 603.6495 254.0534 C 585.6478 272.7971 560.4087 282.169 527.9319 282.169 L 460.009 282.169 z "
   style="font-size:72;font-weight:bold;font-family:Luxi Sans;"
   id="path1182" /><path
   d="M 77.41574 44.99987 C 60.84242 44.99987 47.5 58.34229 47.5 74.9156 L 48.75 93.83409 C 48.75 110.4075 85.84243 107.4999 108.6657 107.4999 C 152.8886 102.4999 196.8488 101.088 237.5842 114.9999 C 269.9721 125.6341 317.5 161.6575 317.5 145.0841 L 316.25 74.9156 C 316.25 58.34229 302.9076 44.99987 286.3342 44.99987 L 77.41574 44.99987 z "
   transform="translate(359.0357,3.814697e-6)"
   style="font-size:12;fill:#ffffff;fill-opacity:0.269;fill-rule:evenodd;"
   id="path1153" /><rect
   width="297.5"
   height="297.5"
   rx="46.484375"
   ry="53.4570427"
   x="32.5"
   y="32.4998512"
   transform="translate(718.0714,3.814697e-6)"
   style="font-size:12;fill:url(#radialGradient1143);fill-rule:evenodd;stroke:#000000;stroke-width:17.70833;"
   id="rect1155" /><path
   d="M 828.9092 282.169 L 828.9092 252.9398 L 927.1748 104.4277 L 834.8942 104.4277 L 834.8942 76.17287 L 977.004 76.17287 L 977.004 104.4277 L 878.7383 252.9398 L 977.004 252.9398 L 977.004 282.169 L 828.9092 282.169 z "
   style="font-size:72;font-weight:bold;font-family:Luxi Sans;"
   id="path1179" /><path
   d="M 77.41574 44.99987 C 60.84242 44.99987 47.5 58.34229 47.5 74.9156 L 48.75 93.83409 C 48.75 110.4075 85.84243 107.4999 108.6657 107.4999 C 152.8886 102.4999 196.8488 101.088 237.5842 114.9999 C 269.9721 125.6341 317.5 161.6575 317.5 145.0841 L 316.25 74.9156 C 316.25 58.34229 302.9076 44.99987 286.3342 44.99987 L 77.41574 44.99987 z "
   transform="translate(718.0714,3.814697e-6)"
   style="font-size:12;fill:#ffffff;fill-opacity:0.269;fill-rule:evenodd;"
   id="path1156" /></svg>
